<svg id="Capa_1" enable-background="new 0 0 511.697 511.697" height="512" viewBox="0 0 511.697 511.697" width="512" xmlns="http://www.w3.org/2000/svg"><path d="m496.797 133.113h-16.892c-44.956-81.967-130.386-132.689-224.056-132.689-93.619 0-179.099 50.739-224.054 132.689h-16.895c-8.216 0-14.9 6.684-14.9 14.9v215.671c0 8.216 6.685 14.9 14.9 14.9h16.895c44.955 81.947 130.445 132.689 224.054 132.689 93.67 0 179.101-50.722 224.057-132.689h16.892c8.216 0 14.9-6.684 14.9-14.9v-215.671c-.001-8.216-6.685-14.9-14.901-14.9zm-481.797 15h309.979l-15 15h-236.234c-4.143 0-7.5 3.358-7.5 7.5 0 15.85-12.895 28.745-28.745 28.745-4.143 0-7.5 3.358-7.5 7.5v97.981c0 4.142 3.357 7.5 7.5 7.5 15.851 0 28.745 12.895 28.745 28.745 0 4.142 3.357 7.5 7.5 7.5h50.763l-15 15h-94.508zm324.979-15h-242.337c37.702-48.475 95.419-77.285 156.881-77.685 43.918-.285 85.715 13.431 120.894 39.666.471.351.599.819.622 1.149.021.282-.015.825-.479 1.29zm-200.471 200.471h-58.906c-3.144-18.124-17.477-32.458-35.602-35.601v-84.269c18.125-3.143 32.458-17.477 35.602-35.602h124.738c-25.4 16.56-42.227 45.218-42.227 77.736 0 15.192 3.708 30.065 10.757 43.373zm357.189 30h-21.368c-.001 0-.002 0-.003 0h-225.994c-4.143 0-7.5 3.358-7.5 7.5s3.357 7.5 7.5 7.5h164.722c-11.194 14.385-24.272 27.186-39.028 38.158-3.323 2.472-4.015 7.17-1.543 10.494 1.472 1.98 3.733 3.025 6.024 3.025 1.556 0 3.125-.482 4.47-1.482 18.929-14.076 35.297-30.951 48.707-50.195h29.952c-43.284 72.908-121.399 117.689-206.788 117.689-85.333 0-163.497-44.798-206.782-117.689h29.844c1.359 1.953 2.742 3.897 4.161 5.8 2.875 3.855 7.281 6.267 12.089 6.615.403.029.806.043 1.207.043 4.402 0 8.639-1.742 11.774-4.877l112.467-112.466c2.929-2.929 2.929-7.678 0-10.606s-7.677-2.93-10.607 0l-24.926 24.926c-4.567-10.046-6.961-21.003-6.961-32.17 0-42.864 34.872-77.736 77.735-77.736 11.166 0 22.122 2.394 32.169 6.961l-55.417 55.417c-2.929 2.929-2.929 7.678 0 10.606 1.465 1.464 3.385 2.197 5.304 2.197s3.839-.732 5.304-2.197l142.957-142.957c3.421-3.421 5.183-8.153 4.833-12.98-.349-4.808-2.76-9.214-6.616-12.09-37.433-27.917-81.836-42.646-128.516-42.646-.478 0-.964.001-1.442.004-69.876.454-135.227 35.06-175.389 92.685h-29.971c43.285-72.894 121.443-117.689 206.784-117.689 85.389 0 163.504 44.781 206.788 117.689h-29.849c-1.362-1.957-2.745-3.902-4.16-5.8-2.875-3.855-7.281-6.267-12.089-6.615-4.844-.348-9.56 1.412-12.981 4.834l-278.027 278.025c-3.421 3.421-5.183 8.153-4.833 12.98.348 4.807 2.759 9.214 6.615 12.09 37.434 27.917 81.837 42.648 128.517 42.646.478 0 .964-.001 1.442-.004 34.224-.223 68.313-8.783 98.582-24.756 3.664-1.933 5.066-6.47 3.133-10.133-1.932-3.663-6.467-5.065-10.133-3.133-28.149 14.854-59.852 22.815-91.68 23.022-43.913.308-85.716-13.431-120.894-39.666-.471-.351-.599-.819-.622-1.149-.021-.283.015-.826.479-1.291l35.579-35.579h45.653c4.143 0 7.5-3.358 7.5-7.5s-3.357-7.5-7.5-7.5h-30.653l15-15h236.235c4.143 0 7.5-3.358 7.5-7.5 0-15.85 12.895-28.745 28.745-28.745 4.143 0 7.5-3.358 7.5-7.5v-97.981c0-4.142-3.357-7.5-7.5-7.5-15.851 0-28.745-12.895-28.745-28.745 0-4.142-3.357-7.5-7.5-7.5h-50.761l15-15h94.507zm-273.018-36.961 102.944-102.943c4.568 10.047 6.962 21.003 6.962 32.169 0 42.864-34.872 77.736-77.736 77.736-11.166-.001-22.123-2.394-32.17-6.962zm124.906-70.774c0-15.19-3.708-30.063-10.758-43.374l34.363-34.362h58.906c3.144 18.125 17.477 32.458 35.602 35.602v84.269c-18.125 3.143-32.458 17.477-35.602 35.602h-124.738c25.4-16.562 42.227-45.22 42.227-77.737z"/></svg>